<svg width="166" height="138" viewBox="0 0 166 138" fill="none" xmlns="http://www.w3.org/2000/svg">
<path d="M122.837 78.7288C122.806 78.7164 122.664 78.659 122.432 78.565C120.263 77.6879 110.203 73.6202 108.261 73.0432C107.383 72.783 106.443 72.529 105.442 72.529C103.808 72.529 102.435 73.2011 101.366 74.5215C100.157 76.0046 96.4971 79.5353 95.3663 80.59C95.2186 80.7293 95.0171 80.8956 94.8963 80.8956C94.788 80.8956 92.915 80.2591 92.348 80.0558C79.3654 75.4014 69.511 64.2086 68.1598 62.3211C67.9855 62.076 67.962 61.9517 67.958 61.93C67.9575 61.9277 67.9573 61.9265 67.9571 61.9265C68.0046 61.7829 68.4412 61.4216 68.6665 61.2353C69.325 60.6975 70.0384 59.9888 70.7288 59.303L70.7308 59.3011C71.0579 58.9759 71.3857 58.6503 71.7074 58.3433C72.709 57.3816 73.1553 56.6348 73.6721 55.7702L73.6737 55.7677L73.9448 55.3179C75.2082 53.2463 74.1291 51.498 73.7804 50.9335C73.5629 50.5745 70.5594 44.6097 68.8915 41.2974C68.3647 40.2511 67.9711 39.4694 67.8407 39.2127C66.5342 36.6322 64.8078 35.4307 62.4088 35.4307C62.3469 35.4307 62.3195 35.4307 62.292 35.4314C62.2206 35.4332 62.1494 35.4397 61.4753 35.4631C60.3385 35.5027 54.1483 36.1753 51.4113 37.5993C48.5088 39.1095 43.5986 43.9237 43.5986 52.3899C43.5986 60.0097 49.4575 67.2042 51.9729 69.9404C52.0249 69.9978 52.1132 70.1045 52.2373 70.2545C52.2623 70.2848 52.2888 70.3168 52.3168 70.3506C61.9501 81.9619 73.9593 90.567 86.1334 94.5809C97.8537 98.4448 103.404 98.8914 106.559 98.8914H106.559C107.885 98.8914 108.947 98.8056 109.883 98.7295L110.477 98.6828C114.526 98.3865 123.423 94.5813 125.447 89.9394C127.042 86.2832 127.462 82.2885 126.401 80.8387C125.675 79.8531 124.423 79.3571 122.838 78.7292L122.837 78.7288Z" fill="#EDE7F4"/>
<path d="M122.837 78.7288C122.806 78.7164 122.664 78.659 122.432 78.565C120.263 77.6879 110.203 73.6202 108.261 73.0432C107.383 72.783 106.443 72.529 105.442 72.529C103.808 72.529 102.435 73.2011 101.366 74.5215C100.157 76.0046 96.4971 79.5353 95.3663 80.59C95.2186 80.7293 95.0171 80.8956 94.8963 80.8956C94.788 80.8956 92.915 80.2591 92.348 80.0558C79.3654 75.4014 69.511 64.2086 68.1598 62.3211C67.9855 62.076 67.962 61.9517 67.958 61.93C67.9575 61.9277 67.9573 61.9265 67.9571 61.9265C68.0046 61.7829 68.4412 61.4216 68.6665 61.2353C69.325 60.6975 70.0384 59.9888 70.7288 59.303L70.7308 59.3011C71.0579 58.9759 71.3857 58.6503 71.7074 58.3433C72.709 57.3816 73.1553 56.6348 73.6721 55.7702L73.6737 55.7677L73.9448 55.3179C75.2082 53.2463 74.1291 51.498 73.7804 50.9335C73.5629 50.5745 70.5594 44.6097 68.8915 41.2974C68.3647 40.2511 67.9711 39.4694 67.8407 39.2127C66.5342 36.6322 64.8078 35.4307 62.4088 35.4307C62.3469 35.4307 62.3195 35.4307 62.292 35.4314C62.2206 35.4332 62.1494 35.4397 61.4753 35.4631C60.3385 35.5027 54.1483 36.1753 51.4113 37.5993C48.5088 39.1095 43.5986 43.9237 43.5986 52.3899C43.5986 60.0097 49.4575 67.2042 51.9729 69.9404C52.0249 69.9978 52.1132 70.1045 52.2373 70.2545C52.2623 70.2848 52.2888 70.3168 52.3168 70.3506C61.9501 81.9619 73.9593 90.567 86.1334 94.5809C97.8537 98.4448 103.404 98.8914 106.559 98.8914H106.559C107.885 98.8914 108.947 98.8056 109.883 98.7295L110.477 98.6828C114.526 98.3865 123.423 94.5813 125.447 89.9394C127.042 86.2832 127.462 82.2885 126.401 80.8387C125.675 79.8531 124.423 79.3571 122.838 78.7292L122.837 78.7288Z" stroke="#EDE7F4"/>
<path d="M84.4777 0C39.5174 0 2.93952 29.9621 2.93952 66.7904C2.93952 78.702 6.80191 90.3619 14.1187 100.567L0.11414 134.662C-0.14673 135.298 0.0473058 136 0.617016 136.479C1.02826 136.826 1.58612 137.012 2.15583 137.012C2.37412 137.012 2.59403 136.985 2.80854 136.929L45.8845 125.631C57.6722 130.829 70.9949 133.573 84.4782 133.573C129.434 133.574 166.008 103.615 166.008 66.7904C166.008 29.9621 129.434 0 84.4777 0ZM84.4777 119.661C71.7904 119.661 59.502 116.637 48.9389 110.916C48.5837 110.724 48.1714 110.625 47.7564 110.625C47.537 110.625 47.3171 110.653 47.1031 110.709L25.5247 116.37L32.4906 99.4083C32.7159 98.8593 32.6033 98.2539 32.1883 97.7859C24.1444 88.7146 19.8923 77.997 19.8923 66.7904C19.8923 37.6339 48.8651 13.913 84.4771 13.913C120.085 13.913 149.054 37.6339 149.054 66.7904C149.055 95.9434 120.086 119.661 84.4777 119.661Z" fill="#EDE7F4"/>
<path d="M84.4777 0C39.5174 0 2.93952 29.9621 2.93952 66.7904C2.93952 78.702 6.80191 90.3619 14.1187 100.567L0.11414 134.662C-0.14673 135.298 0.0473058 136 0.617016 136.479C1.02826 136.826 1.58612 137.012 2.15583 137.012C2.37412 137.012 2.59403 136.985 2.80854 136.929L45.8845 125.631C57.6722 130.829 70.9949 133.573 84.4782 133.573C129.434 133.574 166.008 103.615 166.008 66.7904C166.008 29.9621 129.434 0 84.4777 0ZM84.4777 119.661C71.7904 119.661 59.502 116.637 48.9389 110.916C48.5837 110.724 48.1714 110.625 47.7564 110.625C47.537 110.625 47.3171 110.653 47.1031 110.709L25.5247 116.37L32.4906 99.4083C32.7159 98.8593 32.6033 98.2539 32.1883 97.7859C24.1444 88.7146 19.8923 77.997 19.8923 66.7904C19.8923 37.6339 48.8651 13.913 84.4771 13.913C120.085 13.913 149.054 37.6339 149.054 66.7904C149.055 95.9434 120.086 119.661 84.4777 119.661Z" stroke="#EDE7F4"/>
</svg>
