<svg width="487" height="87" viewBox="0 0 487 87" fill="none" xmlns="http://www.w3.org/2000/svg">
<path d="M0 64.1222L12.2309 1.16919H21.3141L36.6477 41.5041L51.9812 1.16919H61.0645L73.2953 64.1222H62.0987L54.5443 25.1813L40.3799 62.6833H32.8705L18.706 25.1813L11.1966 64.1222H0Z" fill="#D5DAD5"/>
<path d="M107.991 65.2913C103.734 65.2913 99.7323 64.4519 95.9851 62.7732C92.2379 61.0645 88.9403 58.7112 86.0925 55.7134C83.2746 52.7157 81.0562 49.2533 79.4374 45.3262C77.8486 41.3691 77.0542 37.1423 77.0542 32.6457C77.0542 28.119 77.8486 23.8922 79.4374 19.9651C81.0562 16.0081 83.2746 12.5456 86.0925 9.57786C88.9403 6.58009 92.2379 4.24184 95.9851 2.56309C99.7323 0.854363 103.734 0 107.991 0C113.087 0 117.779 1.18412 122.066 3.55236C126.352 5.89061 129.905 9.02328 132.723 12.9503L122.92 18.2114C121.151 16.0231 118.948 14.2694 116.31 12.9503C113.702 11.6313 110.929 10.9718 107.991 10.9718C105.233 10.9718 102.64 11.5414 100.212 12.6805C97.7837 13.7897 95.6553 15.3486 93.8267 17.3571C91.9981 19.3356 90.5741 21.6439 89.5549 24.2819C88.5356 26.8899 88.026 29.6779 88.026 32.6457C88.026 35.6434 88.5356 38.4463 89.5549 41.0544C90.6041 43.6624 92.043 45.9707 93.8717 47.9792C95.7003 49.9577 97.8137 51.5166 100.212 52.6557C102.64 53.7649 105.233 54.3195 107.991 54.3195C110.989 54.3195 113.777 53.66 116.355 52.341C118.963 50.992 121.151 49.2233 122.92 47.0349L132.723 52.341C129.905 56.2381 126.352 59.3707 122.066 61.739C117.779 64.1072 113.087 65.2913 107.991 65.2913Z" fill="#D5DAD5"/>
<path d="M153.607 64.1222L137.509 1.16919H148.841L159.812 44.2021L170.784 1.16919H180.812L191.784 44.2021L202.71 1.16919H214.042L198.034 64.1222H185.578L175.775 25.9907L166.108 64.1222H153.607Z" fill="#D5DAD5"/>
<path d="M235.653 1.16968V12.156H246.624V12.1404H256.517C259.335 12.1404 261.972 12.6803 264.431 13.7595C266.889 14.8087 269.064 16.2772 270.952 18.1658C272.841 20.0544 274.324 22.2291 275.403 24.6873C276.483 27.1454 277.022 29.7984 277.022 32.6462C277.022 35.4941 276.483 38.162 275.403 40.6501C274.324 43.1083 272.841 45.2811 270.952 47.1697C269.064 49.0283 266.874 50.4967 264.386 51.5759C261.928 52.6251 259.305 53.1501 256.517 53.1501H246.624V37.1443H235.653V64.1228H256.517C260.863 64.1228 264.925 63.3119 268.702 61.6931C272.509 60.0443 275.854 57.7819 278.731 54.904C281.639 51.9962 283.902 48.6539 285.521 44.8767C287.169 41.0695 287.993 36.993 287.993 32.6462C287.993 28.2995 287.169 24.2379 285.521 20.4607C283.902 16.6535 281.639 13.3092 278.731 10.4314C275.854 7.52357 272.509 5.26113 268.702 3.64233C264.925 1.99356 260.863 1.16968 256.517 1.16968H235.653Z" fill="#D5DAD5"/>
<path d="M312.335 65.2914C308.198 65.2914 304.421 64.2272 301.003 62.0988C297.616 59.9704 294.903 57.1075 292.864 53.5102C290.856 49.9129 289.852 45.9408 289.852 41.5941C289.852 38.3265 290.436 35.2688 291.605 32.4209C292.774 29.543 294.378 27.0249 296.417 24.8665C298.485 22.6782 300.883 20.9694 303.611 19.7404C306.339 18.5113 309.247 17.8967 312.335 17.8967C315.842 17.8967 319.05 18.6462 321.958 20.1451C324.895 21.614 327.384 23.6374 329.422 26.2155C331.461 28.7936 332.944 31.7314 333.874 35.0289C334.803 38.3265 335.013 41.7739 334.503 45.3712H301.633C302.052 47.05 302.742 48.5639 303.701 49.9128C304.661 51.2319 305.875 52.2961 307.344 53.1055C308.812 53.8849 310.476 54.2896 312.335 54.3196C314.253 54.3495 315.992 53.8999 317.551 52.9706C319.14 52.0113 320.459 50.7222 321.508 49.1035L332.705 51.7115C330.876 55.6985 328.148 58.9661 324.521 61.5142C320.893 64.0323 316.831 65.2914 312.335 65.2914ZM301.273 37.1424H323.397C323.067 35.3437 322.362 33.7249 321.283 32.286C320.234 30.8171 318.93 29.648 317.371 28.7786C315.812 27.9093 314.133 27.4746 312.335 27.4746C310.536 27.4746 308.872 27.9093 307.344 28.7786C305.815 29.618 304.511 30.7721 303.431 32.241C302.382 33.68 301.663 35.3137 301.273 37.1424Z" fill="#D5DAD5"/>
<path d="M352.699 64.9317C350.361 64.7818 348.098 64.3171 345.909 63.5377C343.751 62.7283 341.833 61.6341 340.154 60.2552C338.475 58.8762 337.186 57.2274 336.287 55.3088L345.55 51.3518C345.909 51.9514 346.494 52.5959 347.303 53.2854C348.113 53.9449 349.072 54.4995 350.181 54.9491C351.32 55.3988 352.564 55.6236 353.913 55.6236C355.053 55.6236 356.132 55.4737 357.151 55.174C358.2 54.8442 359.04 54.3496 359.669 53.6901C360.329 53.0306 360.658 52.1762 360.658 51.127C360.658 50.0178 360.269 49.1634 359.489 48.5639C358.74 47.9344 357.781 47.4697 356.611 47.1699C355.472 46.8402 354.363 46.5404 353.284 46.2706C350.436 45.701 347.783 44.8167 345.325 43.6176C342.897 42.4185 340.933 40.8746 339.434 38.986C337.965 37.0675 337.231 34.7592 337.231 32.0612C337.231 29.0934 338.01 26.5303 339.569 24.3719C341.158 22.2135 343.211 20.5498 345.73 19.3806C348.278 18.2115 351.021 17.627 353.958 17.627C357.526 17.627 360.793 18.3764 363.761 19.8753C366.759 21.3442 369.127 23.4276 370.866 26.1256L362.187 31.2518C361.768 30.5323 361.183 29.8728 360.434 29.2733C359.684 28.6437 358.83 28.1341 357.871 27.7444C356.911 27.3247 355.907 27.0849 354.858 27.0249C353.509 26.965 352.28 27.0849 351.171 27.3847C350.061 27.6845 349.162 28.1941 348.473 28.9135C347.813 29.633 347.483 30.5923 347.483 31.7914C347.483 32.9305 347.933 33.7849 348.832 34.3545C349.732 34.8941 350.811 35.3138 352.07 35.6135C353.359 35.9133 354.588 36.2431 355.757 36.6028C358.395 37.4722 360.868 38.5364 363.177 39.7954C365.515 41.0545 367.388 42.5983 368.797 44.427C370.206 46.2556 370.881 48.444 370.821 50.9921C370.821 53.8999 369.952 56.448 368.213 58.6364C366.474 60.7948 364.226 62.4435 361.468 63.5827C358.74 64.7218 355.817 65.1715 352.699 64.9317Z" fill="#D5DAD5"/>
<path d="M374.902 19.1558H385.873V64.1223H374.902V19.1558ZM380.477 13.3551C378.859 13.3551 377.495 12.8305 376.385 11.7813C375.276 10.7021 374.722 9.35313 374.722 7.73434C374.722 6.14552 375.276 4.81151 376.385 3.73232C377.495 2.65312 378.844 2.11353 380.432 2.11353C382.021 2.11353 383.355 2.65312 384.434 3.73232C385.544 4.81151 386.098 6.14552 386.098 7.73434C386.098 9.35313 385.559 10.7021 384.479 11.7813C383.4 12.8305 382.066 13.3551 380.477 13.3551Z" fill="#D5DAD5"/>
<path d="M426.521 19.1557H437.492V64.9765C437.492 68.2141 436.833 71.1519 435.514 73.79C434.195 76.458 432.396 78.7363 430.118 80.6249C427.84 82.5434 425.232 84.0123 422.294 85.0316C419.356 86.0808 416.268 86.6054 413.031 86.6054C409.883 86.6054 406.855 85.9609 403.947 84.6718C401.04 83.3828 398.462 81.6141 396.213 79.3658C393.995 77.1474 392.301 74.6143 391.132 71.7665L401.16 67.2248C401.759 68.8736 402.658 70.3125 403.858 71.5416C405.087 72.8007 406.496 73.775 408.084 74.4644C409.673 75.1839 411.322 75.5436 413.031 75.5436C414.769 75.5436 416.433 75.3038 418.022 74.8242C419.641 74.3445 421.095 73.6401 422.384 72.7108C423.673 71.8114 424.677 70.7023 425.396 69.3832C426.146 68.0942 426.521 66.6253 426.521 64.9765V58.6363C425.112 60.6148 423.343 62.2186 421.215 63.4477C419.086 64.6768 416.628 65.2913 413.84 65.2913C410.603 65.2913 407.575 64.6768 404.757 63.4477C401.939 62.2186 399.451 60.5248 397.292 58.3665C395.164 56.1781 393.485 53.66 392.256 50.8121C391.057 47.9642 390.458 44.9065 390.458 41.6389C390.458 38.3714 391.057 35.3137 392.256 32.4658C393.485 29.6179 395.164 27.1148 397.292 24.9564C399.451 22.768 401.939 21.0593 404.757 19.8302C407.575 18.6011 410.603 17.9866 413.84 17.9866C416.628 17.9866 419.086 18.6011 421.215 19.8302C423.343 21.0293 425.112 22.6181 426.521 24.5966V19.1557ZM413.975 54.7242C416.283 54.7242 418.322 54.1396 420.09 52.9705C421.889 51.7714 423.298 50.1826 424.317 48.204C425.337 46.1955 425.846 44.0072 425.846 41.6389C425.846 39.2407 425.322 37.0524 424.272 35.0738C423.253 33.0953 421.844 31.5065 420.045 30.3074C418.277 29.1083 416.253 28.5087 413.975 28.5087C411.727 28.5087 409.673 29.1083 407.815 30.3074C405.956 31.4765 404.472 33.0503 403.363 35.0289C402.254 37.0074 401.699 39.2107 401.699 41.6389C401.699 44.0671 402.254 46.2705 403.363 48.249C404.472 50.2275 405.956 51.8014 407.815 52.9705C409.673 54.1396 411.727 54.7242 413.975 54.7242Z" fill="#D5DAD5"/>
<path d="M486.499 35.7034V64.1223H475.527V38.5813C475.527 36.8126 475.092 35.2088 474.223 33.7699C473.354 32.301 472.185 31.1468 470.716 30.3075C469.277 29.4381 467.673 29.0034 465.904 29.0034C464.136 29.0034 462.517 29.4381 461.048 30.3075C459.609 31.1468 458.455 32.301 457.585 33.7699C456.746 35.2088 456.326 36.8126 456.326 38.5813V64.1223H445.355L445.31 19.1558H456.281L456.326 23.1578C457.855 21.539 459.684 20.265 461.812 19.3357C463.941 18.3764 466.234 17.8967 468.692 17.8967C471.96 17.8967 474.943 18.7061 477.641 20.3249C480.338 21.9137 482.482 24.0571 484.071 26.7551C485.689 29.4231 486.499 32.4059 486.499 35.7034Z" fill="#D5DAD5"/>
</svg>
