<svg width="497" height="290" viewBox="0 0 497 290" fill="none" xmlns="http://www.w3.org/2000/svg">
<path d="M0 148.779L28.3786 2.71265H49.4539L85.0314 96.2994L120.609 2.71265H141.684L170.063 148.779H144.084L126.556 58.4265L93.6911 145.44H76.2674L43.4025 58.4265L25.9789 148.779H0Z" fill="#d5dad5"/>
<path d="M250.566 151.492C240.689 151.492 231.403 149.544 222.709 145.649C214.014 141.684 206.363 136.224 199.756 129.269C193.217 122.313 188.07 114.279 184.314 105.168C180.628 95.9864 178.785 86.1791 178.785 75.7458C178.785 65.2429 180.628 55.4356 184.314 46.3239C188.07 37.1426 193.217 29.1089 199.756 22.2229C206.363 15.2674 214.014 9.84208 222.709 5.94699C231.403 1.98233 240.689 0 250.566 0C262.39 0 273.276 2.74744 283.222 8.24232C293.168 13.6676 301.411 20.9362 307.949 30.0479L285.204 42.2549C281.101 37.1773 275.988 33.1084 269.867 30.0479C263.816 26.9875 257.382 25.4573 250.566 25.4573C244.167 25.4573 238.15 26.7788 232.516 29.4219C226.882 31.9955 221.944 35.6124 217.701 40.2726C213.458 44.8632 210.154 50.219 207.789 56.3398C205.424 62.3912 204.242 68.8598 204.242 75.7458C204.242 82.7013 205.424 89.2048 207.789 95.2561C210.224 101.307 213.562 106.663 217.805 111.323C222.048 115.914 226.952 119.531 232.516 122.174C238.15 124.748 244.167 126.034 250.566 126.034C257.521 126.034 263.99 124.504 269.972 121.444C276.023 118.314 281.101 114.21 285.204 109.132L307.949 121.444C301.411 130.486 293.168 137.754 283.222 143.249C273.276 148.744 262.39 151.492 250.566 151.492Z" fill="#d5dad5"/>
<path d="M356.406 148.779L319.054 2.71265H345.346L370.804 102.559L396.261 2.71265H419.527L444.984 102.559L470.337 2.71265H496.629L459.487 148.779H430.586L407.842 60.3045L385.41 148.779H356.406Z" fill="#d5dad5"/>
<path d="M85.4845 181.788V195.703H99.7293V195.683H112.574C116.233 195.683 119.658 196.367 122.85 197.734C126.042 199.063 128.866 200.923 131.318 203.315C133.77 205.707 135.696 208.462 137.097 211.575C138.499 214.689 139.2 218.049 139.2 221.656C139.2 225.263 138.499 228.642 137.097 231.794C135.696 234.907 133.77 237.659 131.318 240.051C128.866 242.405 126.022 244.265 122.792 245.632C119.6 246.961 116.194 247.626 112.574 247.626H99.7293V227.353H85.4845V261.524H112.574C118.218 261.524 123.492 260.497 128.396 258.447C133.34 256.358 137.682 253.493 141.419 249.848C145.194 246.165 148.132 241.931 150.234 237.147C152.375 232.325 153.445 227.162 153.445 221.656C153.445 216.15 152.375 211.006 150.234 206.222C148.132 201.4 145.194 197.164 141.419 193.519C137.682 189.836 133.34 186.97 128.396 184.92C123.492 182.832 118.218 181.788 112.574 181.788H85.4845Z" fill="#d5dad5"/>
<path d="M185.05 263.004C179.678 263.004 174.774 261.656 170.337 258.961C165.938 256.265 162.416 252.639 159.769 248.082C157.161 243.526 155.857 238.495 155.857 232.989C155.857 228.851 156.616 224.978 158.134 221.371C159.652 217.726 161.734 214.536 164.381 211.802C167.067 209.031 170.181 206.866 173.723 205.31C177.265 203.753 181.041 202.975 185.05 202.975C189.604 202.975 193.769 203.924 197.545 205.822C201.359 207.683 204.59 210.246 207.237 213.511C209.884 216.776 211.81 220.497 213.017 224.674C214.224 228.851 214.496 233.217 213.834 237.774H171.154C171.699 239.9 172.594 241.817 173.84 243.526C175.085 245.197 176.662 246.545 178.569 247.57C180.476 248.557 182.637 249.069 185.05 249.107C187.541 249.145 189.799 248.576 191.823 247.399C193.886 246.184 195.598 244.551 196.961 242.501L211.499 245.804C209.125 250.854 205.582 254.993 200.873 258.22C196.163 261.41 190.889 263.004 185.05 263.004ZM170.687 227.351H199.413C198.985 225.073 198.07 223.022 196.669 221.2C195.307 219.339 193.613 217.859 191.589 216.758C189.565 215.656 187.385 215.106 185.05 215.106C182.715 215.106 180.554 215.656 178.569 216.758C176.584 217.821 174.891 219.282 173.49 221.143C172.127 222.966 171.193 225.035 170.687 227.351Z" fill="#d5dad5"/>
<path d="M237.461 262.548C234.425 262.358 231.486 261.77 228.645 260.783C225.842 259.758 223.351 258.372 221.171 256.625C218.992 254.878 217.318 252.79 216.15 250.36L228.178 245.348C228.645 246.108 229.404 246.924 230.455 247.797C231.506 248.633 232.751 249.335 234.191 249.904C235.671 250.474 237.286 250.759 239.038 250.759C240.517 250.759 241.918 250.569 243.241 250.189C244.604 249.772 245.694 249.145 246.511 248.31C247.367 247.474 247.795 246.392 247.795 245.063C247.795 243.659 247.289 242.576 246.277 241.817C245.304 241.02 244.059 240.431 242.541 240.051C241.062 239.634 239.621 239.254 238.22 238.912C234.522 238.191 231.078 237.071 227.886 235.552C224.733 234.033 222.183 232.078 220.237 229.686C218.33 227.256 217.376 224.332 217.376 220.915C217.376 217.156 218.388 213.909 220.412 211.176C222.475 208.442 225.142 206.335 228.411 204.854C231.72 203.373 235.281 202.633 239.096 202.633C243.728 202.633 247.971 203.582 251.824 205.48C255.716 207.341 258.791 209.98 261.049 213.397L249.781 219.89C249.236 218.978 248.477 218.143 247.503 217.384C246.53 216.586 245.421 215.941 244.175 215.447C242.93 214.916 241.626 214.612 240.264 214.536C238.512 214.46 236.916 214.612 235.476 214.992C234.036 215.371 232.868 216.017 231.973 216.928C231.116 217.839 230.688 219.054 230.688 220.573C230.688 222.016 231.272 223.098 232.44 223.82C233.608 224.503 235.009 225.035 236.644 225.414C238.317 225.794 239.913 226.212 241.431 226.667C244.857 227.768 248.068 229.116 251.065 230.711C254.101 232.306 256.534 234.261 258.363 236.577C260.193 238.893 261.069 241.665 260.991 244.893C260.991 248.576 259.862 251.803 257.604 254.575C255.347 257.309 252.427 259.397 248.846 260.84C245.304 262.283 241.509 262.852 237.461 262.548Z" fill="#d5dad5"/>
<path d="M266.289 204.57H280.536V261.524H266.289V204.57ZM273.529 197.223C271.427 197.223 269.656 196.558 268.216 195.23C266.776 193.863 266.056 192.154 266.056 190.104C266.056 188.091 266.776 186.402 268.216 185.035C269.656 183.668 271.408 182.984 273.471 182.984C275.534 182.984 277.266 183.668 278.667 185.035C280.108 186.402 280.828 188.091 280.828 190.104C280.828 192.154 280.127 193.863 278.726 195.23C277.324 196.558 275.592 197.223 273.529 197.223Z" fill="#d5dad5"/>
<path d="M333.313 204.569H347.559V262.605C347.559 266.706 346.703 270.427 344.99 273.768C343.278 277.147 340.942 280.033 337.984 282.425C335.026 284.855 331.639 286.716 327.825 288.007C324.01 289.336 320.001 290 315.797 290C311.71 290 307.779 289.184 304.003 287.551C300.228 285.918 296.88 283.678 293.961 280.831C291.081 278.021 288.881 274.812 287.363 271.205L300.383 265.453C301.162 267.541 302.33 269.364 303.887 270.921C305.482 272.515 307.312 273.749 309.375 274.623C311.438 275.534 313.579 275.989 315.797 275.989C318.055 275.989 320.215 275.686 322.278 275.078C324.38 274.471 326.268 273.578 327.942 272.401C329.615 271.262 330.919 269.857 331.854 268.187C332.827 266.554 333.313 264.694 333.313 262.605V254.575C331.484 257.081 329.187 259.112 326.424 260.669C323.66 262.226 320.468 263.004 316.848 263.004C312.645 263.004 308.713 262.226 305.054 260.669C301.395 259.112 298.165 256.967 295.362 254.233C292.599 251.461 290.419 248.272 288.823 244.665C287.266 241.058 286.488 237.185 286.488 233.046C286.488 228.907 287.266 225.034 288.823 221.427C290.419 217.82 292.599 214.65 295.362 211.916C298.165 209.144 301.395 206.98 305.054 205.423C308.713 203.867 312.645 203.088 316.848 203.088C320.468 203.088 323.66 203.867 326.424 205.423C329.187 206.942 331.484 208.954 333.313 211.46V204.569ZM317.023 249.62C320.021 249.62 322.667 248.879 324.964 247.398C327.299 245.88 329.129 243.867 330.452 241.361C331.776 238.817 332.437 236.046 332.437 233.046C332.437 230.008 331.756 227.237 330.394 224.731C329.07 222.225 327.241 220.212 324.906 218.694C322.609 217.175 319.982 216.415 317.023 216.415C314.104 216.415 311.438 217.175 309.025 218.694C306.611 220.174 304.685 222.168 303.244 224.674C301.804 227.18 301.084 229.97 301.084 233.046C301.084 236.122 301.804 238.912 303.244 241.418C304.685 243.924 306.611 245.918 309.025 247.398C311.438 248.879 314.104 249.62 317.023 249.62Z" fill="#d5dad5"/>
<path d="M411.191 225.528V261.523H396.945V229.174C396.945 226.933 396.381 224.902 395.252 223.079C394.123 221.219 392.605 219.757 390.698 218.694C388.83 217.593 386.747 217.042 384.451 217.042C382.154 217.042 380.052 217.593 378.145 218.694C376.277 219.757 374.778 221.219 373.649 223.079C372.559 224.902 372.014 226.933 372.014 229.174V261.523H357.768L357.71 204.569H371.956L372.014 209.638C373.999 207.588 376.374 205.974 379.137 204.797C381.901 203.582 384.879 202.975 388.071 202.975C392.313 202.975 396.186 204 399.689 206.05C403.193 208.063 405.976 210.777 408.039 214.195C410.14 217.574 411.191 221.352 411.191 225.528Z" fill="#d5dad5"/>
</svg>
